<?xml version="1.0" standalone="no"?>
<!DOCTYPE svg PUBLIC "-//W3C//DTD SVG 20010904//EN"
 "http://www.w3.org/TR/2001/REC-SVG-20010904/DTD/svg10.dtd">
<svg version="1.0" xmlns="http://www.w3.org/2000/svg"
 width="1024.000000pt" height="1024.000000pt" viewBox="0 0 1024.000000 1024.000000"
 preserveAspectRatio="xMidYMid meet">

<g transform="translate(0.000000,1024.000000) scale(0.100000,-0.100000)"
fill="#000000" stroke="none">
<path d="M4775 8709 c-414 -42 -872 -177 -1260 -371 -183 -92 -250 -131 -425
-249 -215 -144 -345 -253 -540 -448 -593 -594 -935 -1271 -1035 -2043 -111
-863 70 -1659 540 -2383 254 -391 649 -789 1033 -1040 531 -346 1038 -529
1667 -601 222 -25 571 -23 785 5 858 113 1581 474 2185 1093 511 522 801 1071
950 1800 43 208 59 391 59 668 0 404 -40 675 -155 1045 -226 725 -730 1404
-1379 1861 -537 378 -1106 592 -1762 663 -111 13 -544 12 -663 0z m655 -150
c913 -86 1808 -573 2408 -1309 373 -458 619 -1005 717 -1594 73 -440 57 -845
-50 -1291 -157 -657 -461 -1182 -970 -1678 -141 -138 -467 -387 -635 -487
-345 -205 -697 -342 -1090 -425 -553 -117 -1070 -95 -1654 69 -560 158 -1081
463 -1510 884 -150 149 -223 231 -323 363 -463 618 -693 1292 -693 2034 0 564
118 1057 369 1541 129 248 248 421 447 649 247 283 431 447 739 657 670 456
1456 662 2245 587z"/>
<path d="M5090 8233 c-28 -89 -76 -133 -177 -163 -24 -7 -43 -16 -43 -20 0 -4
21 -13 48 -20 101 -25 148 -69 172 -158 6 -24 16 -42 21 -40 6 2 19 27 28 56
10 29 27 62 37 73 23 26 110 69 140 69 12 0 27 7 34 15 10 12 7 15 -17 20
-118 27 -171 75 -207 188 -9 28 -24 20 -36 -20z"/>
<path d="M4398 8189 c-27 -15 -24 -74 4 -93 12 -9 28 -16 35 -16 20 0 53 38
53 60 0 25 -34 60 -57 60 -10 0 -26 -5 -35 -11z"/>
<path d="M5738 8099 c-21 -12 -24 -49 -6 -67 39 -39 100 17 63 58 -20 22 -32
24 -57 9z"/>
<path d="M3766 8024 c-22 -21 -20 -67 2 -87 39 -35 102 -9 102 41 0 50 -70 81
-104 46z"/>
<path d="M6398 8004 c-13 -27 -5 -49 24 -68 27 -17 68 8 68 42 0 15 -5 33 -12
40 -22 22 -67 14 -80 -14z"/>
<path d="M6766 7794 c-24 -23 -19 -53 10 -66 47 -22 85 30 49 66 -21 20 -39
20 -59 0z"/>
<path d="M3815 7642 c-178 -62 -247 -249 -145 -398 32 -46 102 -94 138 -94 28
0 28 -6 -8 -79 -56 -112 -74 -214 -74 -406 1 -149 4 -181 26 -265 53 -197 140
-371 272 -543 94 -123 298 -312 543 -506 128 -100 246 -199 263 -219 54 -65
60 -142 19 -222 -23 -45 -89 -109 -339 -322 -300 -256 -477 -446 -590 -632
-217 -361 -269 -793 -138 -1164 16 -48 35 -93 40 -100 13 -15 14 -14 -44 -36
-87 -32 -158 -140 -158 -241 0 -89 59 -178 148 -222 l57 -28 1280 0 c1452 1
1337 -6 1415 82 64 73 81 159 54 268 l-6 25 238 0 c254 0 278 4 300 49 16 32
6 59 -29 77 -26 14 -75 16 -359 13 -180 -2 -328 -1 -328 2 0 4 15 47 34 96 51
131 69 248 70 443 1 250 -40 421 -154 655 -124 254 -294 435 -797 848 -82 68
-143 126 -163 156 -60 94 -49 201 28 276 20 20 95 82 165 138 343 272 431 349
544 477 248 279 373 582 373 905 0 163 -29 305 -86 417 -28 56 -29 58 -8 58
33 0 113 53 143 95 17 24 36 66 43 94 29 129 -60 274 -191 311 -23 6 -478 10
-1281 10 -1156 -1 -1249 -2 -1295 -18z m2565 -147 c40 -20 70 -62 70 -97 0
-44 -26 -84 -61 -97 -23 -8 -397 -11 -1298 -11 -1184 0 -1267 2 -1287 18 -68
54 -56 146 23 187 42 22 2510 22 2553 0z m-128 -397 c31 -54 62 -134 85 -218
27 -101 25 -329 -5 -439 -69 -252 -193 -456 -409 -670 -57 -56 -106 -101 -108
-99 -3 2 7 32 21 67 43 106 57 192 51 321 -10 218 -75 369 -221 516 -143 142
-277 210 -463 235 -153 20 -290 -5 -449 -81 -278 -134 -450 -434 -431 -750 7
-107 27 -193 60 -262 l23 -47 -27 19 c-50 36 -224 227 -288 316 -76 106 -159
275 -198 399 -25 83 -27 103 -28 265 0 194 10 246 80 398 l34 72 1124 0 1125
0 24 -42z m-927 -459 c203 -78 334 -213 405 -419 28 -82 39 -218 19 -231 -8
-5 -9 -9 -4 -9 6 0 11 -9 12 -20 1 -11 -2 -18 -7 -15 -5 3 -11 1 -15 -5 -3 -5
1 -10 9 -10 9 0 16 -4 16 -10 0 -5 -9 -10 -20 -10 -22 0 -25 -7 -10 -30 8 -13
10 -12 10 4 0 11 3 17 6 13 4 -3 4 -13 1 -21 -5 -13 -12 -14 -34 -5 l-27 10
19 -22 c11 -12 14 -19 6 -14 -10 6 -12 4 -7 -4 5 -7 14 -10 21 -7 10 3 7 -15
-10 -62 -47 -137 -75 -171 -372 -452 -121 -114 -209 -235 -219 -302 -7 -40
-24 -63 -24 -31 0 68 -143 270 -258 366 -200 166 -296 286 -346 437 -65 197
-47 431 45 575 130 205 349 319 594 311 85 -3 114 -8 190 -37z m-268 -1642
c16 -47 18 -111 20 -723 l2 -670 -48 -13 c-70 -18 -291 -128 -396 -198 -118
-78 -248 -188 -360 -304 -100 -104 -153 -171 -240 -301 -32 -49 -61 -88 -66
-88 -11 0 -65 135 -89 225 -34 126 -39 365 -11 513 76 398 285 687 776 1077
191 151 301 262 338 338 29 59 52 168 43 194 -3 8 -1 11 4 8 5 -3 17 -29 27
-58z m129 -5 c0 -69 50 -168 121 -244 32 -33 164 -152 293 -262 433 -372 566
-529 669 -795 126 -322 131 -603 16 -903 l-38 -98 -45 73 c-146 232 -382 470
-627 634 -96 65 -319 177 -382 193 l-53 14 0 637 c0 383 4 658 10 690 9 46 28
109 34 109 1 0 2 -22 2 -48z m-116 -1691 l0 -149 -27 -6 c-25 -6 -265 -123
-756 -367 -181 -90 -178 -97 -38 81 165 210 393 401 610 511 76 39 175 78 199
79 9 0 12 -36 12 -149z m282 66 c195 -101 447 -314 632 -534 42 -51 75 -93 72
-93 -11 0 -240 102 -401 180 -163 78 -451 210 -487 223 -16 6 -18 23 -18 156
l0 150 53 -15 c28 -9 96 -39 149 -67z m-98 -408 c66 -28 173 -76 236 -107 63
-30 171 -82 240 -114 l125 -58 -749 0 c-412 0 -747 2 -745 4 2 2 65 31 139 66
131 60 332 155 475 224 99 49 131 47 279 -15z m1126 -434 c101 -52 91 -182
-15 -202 -22 -5 -602 -8 -1288 -8 l-1248 0 -35 37 c-54 59 -44 127 24 166 l37
22 1248 0 c1083 0 1252 -2 1277 -15z"/>
<path d="M5706 5941 c-4 -7 -5 -15 -2 -18 9 -9 19 4 14 18 -4 11 -6 11 -12 0z"/>
<path d="M3161 7624 c-25 -20 -31 -34 -31 -64 0 -57 31 -90 84 -90 71 0 114
67 82 129 -30 57 -85 67 -135 25z"/>
<path d="M7029 7367 c-47 -36 -51 -97 -9 -139 26 -25 36 -29 63 -24 43 8 77
48 77 91 0 60 -85 107 -131 72z"/>
<path d="M2912 7274 c-16 -11 -22 -25 -22 -53 0 -63 56 -92 108 -55 16 11 22
25 22 53 0 63 -56 92 -108 55z"/>
<path d="M2932 6967 c-7 -8 -13 -69 -14 -146 l-3 -133 -38 -13 c-117 -40 -182
-174 -146 -303 16 -58 96 -143 149 -158 l35 -10 5 -89 c5 -88 6 -90 31 -93 35
-4 49 30 49 116 0 68 0 68 33 80 89 32 157 131 157 227 0 99 -49 178 -136 221
l-54 26 0 122 c0 94 -4 127 -16 144 -17 25 -36 28 -52 9z m103 -430 c43 -43
52 -79 34 -130 -19 -55 -54 -79 -114 -79 -60 0 -95 25 -113 78 -17 51 -7 100
28 136 24 23 37 28 80 28 46 0 56 -4 85 -33z"/>
<path d="M3330 6950 c-27 -27 -25 -46 4 -65 19 -13 29 -14 45 -5 28 14 29 65
2 80 -26 13 -28 13 -51 -10z"/>
<path d="M6806 6944 c-21 -20 -20 -37 3 -65 16 -21 22 -22 45 -11 46 21 28 92
-23 92 -5 0 -17 -7 -25 -16z"/>
<path d="M7619 6942 c-44 -36 -18 -122 38 -122 31 0 63 34 63 68 0 33 -8 45
-37 61 -29 15 -37 14 -64 -7z"/>
<path d="M2492 6888 c-17 -17 -15 -42 6 -61 33 -30 72 -15 72 28 0 27 -18 45
-45 45 -12 0 -26 -5 -33 -12z"/>
<path d="M7155 6721 c-69 -18 -140 -74 -172 -136 -25 -47 -29 -147 -8 -202 50
-132 187 -199 319 -158 177 56 236 258 120 410 -51 67 -175 108 -259 86z m115
-126 c37 -19 76 -71 85 -112 4 -22 0 -43 -14 -70 -22 -43 -41 -57 -99 -73 -51
-13 -96 3 -134 48 -38 45 -43 82 -19 136 33 76 112 107 181 71z"/>
<path d="M2286 6484 c-31 -30 -8 -69 36 -62 30 4 38 46 12 65 -23 17 -29 16
-48 -3z"/>
<path d="M7897 6473 c-4 -3 -7 -19 -7 -35 0 -35 40 -59 65 -38 18 15 20 51 3
68 -13 13 -50 16 -61 5z"/>
<path d="M7644 6246 c-12 -31 0 -51 31 -51 27 0 30 3 30 30 0 25 -4 30 -28 33
-17 2 -29 -2 -33 -12z"/>
<path d="M3356 6161 c-21 -24 -14 -56 17 -72 17 -10 24 -8 39 11 23 28 23 35
-2 60 -25 25 -32 25 -54 1z"/>
<path d="M7979 6109 c-17 -56 -57 -93 -121 -111 -29 -8 -52 -19 -50 -24 2 -5
26 -16 53 -25 62 -20 106 -61 121 -111 6 -21 14 -38 18 -38 4 0 12 17 18 38
15 50 55 86 120 107 28 9 52 20 52 24 0 5 -27 18 -60 30 -63 23 -83 43 -105
108 -18 51 -32 52 -46 2z"/>
<path d="M2384 6083 c-9 -38 -21 -48 -67 -58 -39 -8 -29 -28 20 -39 33 -7 41
-14 49 -40 11 -38 26 -36 37 3 5 23 15 31 44 38 49 11 53 30 8 39 -37 7 -46
17 -50 57 -4 36 -4 37 -18 37 -8 0 -18 -16 -23 -37z"/>
<path d="M6692 5988 c-8 -8 -12 -47 -12 -108 0 -109 -10 -133 -69 -157 l-36
-15 41 -20 c52 -24 64 -51 64 -142 0 -81 16 -110 45 -86 11 9 15 34 15 97 0
88 9 108 65 141 20 12 20 12 0 24 -58 34 -65 51 -65 156 0 90 -8 122 -30 122
-3 0 -11 -5 -18 -12z"/>
<path d="M2900 5790 c-23 -23 -25 -51 -9 -83 15 -29 28 -37 60 -37 35 0 58 19
65 57 12 63 -71 108 -116 63z"/>
<path d="M7492 5798 c-27 -27 -7 -78 29 -78 21 0 49 26 49 45 0 35 -53 58 -78
33z"/>
<path d="M3556 5683 c-2 -10 -7 -33 -11 -50 -7 -37 -46 -69 -100 -84 -44 -12
-45 -25 -2 -34 61 -14 87 -36 103 -92 9 -29 20 -53 25 -53 5 0 14 20 20 45 13
51 42 79 100 97 46 13 50 25 12 34 -71 17 -101 50 -118 127 -6 31 -21 36 -29
10z"/>
<path d="M2122 5628 c-7 -7 -12 -25 -12 -40 0 -51 81 -50 88 1 7 42 -46 69
-76 39z"/>
<path d="M8013 5564 c-15 -24 -15 -29 -2 -53 12 -21 22 -26 54 -26 32 0 42 5
54 26 13 24 13 29 -2 53 -13 20 -26 26 -52 26 -26 0 -39 -6 -52 -26z"/>
<path d="M7096 5508 c-13 -19 -14 -25 -2 -43 18 -27 47 -31 63 -9 17 23 16 39
-3 58 -21 22 -40 20 -58 -6z"/>
<path d="M2460 5371 c-102 -33 -180 -126 -180 -213 0 -16 -11 -18 -93 -18 -80
0 -96 -3 -115 -20 -31 -29 -29 -73 4 -99 26 -21 36 -21 503 -21 514 0 516 1
534 54 7 22 5 33 -10 55 -20 26 -21 26 -178 31 l-158 5 -12 48 c-17 67 -62
126 -116 155 -49 25 -138 37 -179 23z"/>
<path d="M7567 5316 c-65 -24 -112 -72 -129 -133 l-12 -43 -131 0 c-125 0
-133 -1 -153 -23 -30 -32 -28 -71 4 -96 26 -20 37 -21 404 -21 367 0 378 1
404 21 57 45 21 119 -58 119 -42 0 -44 1 -50 36 -10 49 -88 128 -141 143 -52
14 -91 13 -138 -3z"/>
<path d="M4275 5135 c-49 -48 -16 -125 54 -125 61 0 95 55 67 108 -25 49 -82
57 -121 17z"/>
<path d="M6502 5144 c-42 -29 -18 -104 35 -104 11 0 27 8 36 18 46 50 -16 125
-71 86z"/>
<path d="M8108 5075 c-9 -21 -8 -28 7 -45 24 -27 51 -25 70 4 23 34 5 66 -36
66 -22 0 -32 -6 -41 -25z"/>
<path d="M3706 4988 c-2 -7 -7 -26 -11 -43 -9 -43 -51 -82 -107 -101 -26 -8
-46 -19 -43 -24 2 -4 25 -13 51 -19 50 -13 91 -50 100 -90 14 -63 28 -70 38
-17 9 49 54 93 110 108 48 13 58 25 29 34 -82 27 -118 57 -133 115 -11 41 -28
59 -34 37z"/>
<path d="M5875 4950 c-17 -18 -17 -21 -1 -45 18 -27 45 -32 64 -13 18 18 14
56 -7 68 -27 14 -35 13 -56 -10z"/>
<path d="M2119 4749 c-18 -18 -19 -23 -6 -42 18 -28 40 -32 61 -12 20 21 20
39 0 59 -20 21 -30 20 -55 -5z"/>
<path d="M6600 4705 c-5 -14 -10 -31 -10 -36 0 -6 -22 -19 -50 -31 -50 -21
-58 -38 -16 -38 26 0 63 -32 76 -66 13 -33 22 -30 44 11 13 23 30 38 55 46 56
18 57 25 7 48 -25 11 -49 28 -52 38 -17 54 -39 66 -54 28z"/>
<path d="M2922 4658 c-18 -18 -14 -56 7 -68 26 -14 50 -3 57 26 11 42 -34 72
-64 42z"/>
<path d="M7165 4625 c-21 -20 -25 -32 -20 -53 18 -78 125 -66 125 15 0 34 -13
48 -52 58 -21 5 -33 1 -53 -20z"/>
<path d="M7860 4570 c0 -56 -51 -109 -131 -135 -27 -9 -49 -20 -49 -24 0 -4
26 -15 59 -24 64 -18 99 -48 116 -98 16 -46 27 -45 50 4 23 48 72 85 126 93
60 10 56 30 -8 49 -67 19 -107 56 -124 113 -13 43 -39 58 -39 22z"/>
<path d="M2534 4533 c-35 -99 -55 -121 -132 -144 -23 -7 -41 -17 -39 -22 2 -6
24 -15 50 -22 60 -15 93 -46 115 -107 9 -26 20 -48 24 -48 3 0 14 22 22 48 18
54 46 79 119 107 26 10 47 21 47 24 0 3 -19 12 -42 19 -67 21 -105 55 -120
109 -14 50 -34 66 -44 36z"/>
<path d="M3664 4496 c-12 -31 1 -51 33 -54 27 -3 33 1 39 22 3 14 3 30 -1 35
-9 16 -65 13 -71 -3z"/>
<path d="M7181 4336 c-8 -9 -11 -54 -9 -132 3 -117 3 -119 27 -122 13 -2 28 2
32 10 14 21 11 232 -3 246 -16 16 -33 15 -47 -2z"/>
<path d="M3478 4239 c-21 -12 -24 -49 -6 -67 39 -39 100 17 63 58 -20 22 -32
24 -57 9z"/>
<path d="M6534 4222 c-22 -15 -24 -42 -4 -62 11 -11 24 -20 29 -20 14 0 41 30
41 45 0 30 -42 54 -66 37z"/>
<path d="M2970 4147 c-180 -52 -280 -185 -281 -374 l-1 -73 -212 0 c-194 0
-214 -2 -229 -18 -21 -23 -22 -52 -3 -78 13 -18 30 -19 248 -22 228 -3 233 -3
248 -25 28 -44 104 -107 158 -134 47 -23 73 -28 152 -31 107 -4 174 14 248 68
47 34 118 129 86 115 -106 -44 -184 -45 -274 -3 -103 48 -151 118 -158 229 -7
108 46 203 140 254 45 25 64 29 131 29 73 0 77 1 60 16 -51 48 -222 73 -313
47z"/>
<path d="M2131 4014 c-38 -27 -22 -84 25 -84 29 0 46 23 42 56 -4 34 -37 48
-67 28z"/>
<path d="M7898 4019 c-22 -12 -23 -42 -3 -59 32 -26 81 13 59 48 -14 21 -33
25 -56 11z"/>
<path d="M7180 3889 c-24 -80 -69 -138 -134 -172 -34 -18 -64 -22 -181 -27
-77 -3 -146 -9 -152 -13 -7 -5 -13 -16 -13 -26 0 -32 22 -38 150 -44 73 -4
145 -13 172 -23 86 -29 151 -118 173 -238 9 -45 18 -37 34 28 28 116 92 188
194 217 16 5 120 9 232 9 209 2 246 8 253 44 8 37 -13 41 -246 47 -137 3 -242
11 -266 18 -77 25 -154 121 -171 214 -4 20 -11 37 -16 37 -4 0 -18 -32 -29
-71z"/>
<path d="M3172 3928 c-29 -29 -2 -72 40 -66 42 6 32 78 -11 78 -9 0 -22 -5
-29 -12z"/>
<path d="M2512 3308 c-36 -36 11 -96 49 -62 24 21 24 36 1 57 -22 20 -34 21
-50 5z"/>
<path d="M7570 3275 c-16 -19 -9 -45 16 -62 19 -12 24 -11 45 6 21 16 22 22
11 45 -13 29 -52 36 -72 11z"/>
<path d="M6870 3263 c-63 -22 -45 -113 22 -113 42 0 73 52 50 86 -7 10 -47 35
-54 33 -2 0 -10 -3 -18 -6z"/>
<path d="M7187 3048 c-24 -13 -25 -189 -1 -209 11 -9 20 -10 32 -2 13 8 18 28
20 89 4 115 -9 146 -51 122z"/>
<path d="M2772 2977 c-27 -29 -28 -61 -2 -87 19 -19 33 -20 278 -20 217 0 261
2 280 16 25 18 29 60 8 90 -13 18 -30 19 -278 22 l-264 3 -22 -24z"/>
</g>
</svg>
